<?xml version="1.0" encoding="UTF-8"?>
<svg id="Layer_1" data-name="Layer 1" xmlns="http://www.w3.org/2000/svg" viewBox="0 0 1167.15 265.67">
  <defs>
    <style>
      .cls-1 {
        stroke-width: .5px;
      }

      .cls-1, .cls-2, .cls-3 {
        fill: none;
        stroke: #000;
        stroke-miterlimit: 10;
      }

      .cls-3 {
        stroke-width: .75px;
      }
    </style>
  </defs>
  <path class="cls-2" d="M.47,138.58S42.47,25.58,128.47,12.58c0,0-13,83-77,126,0,0,38.69-.52,72.69-30.52"/>
  <path class="cls-2" d="M.47,138.58s42,113,128,126c0,0-13-83-77-126,0,0,38.69.52,72.69,30.52"/>
  <line class="cls-2" x1="51.47" y1="138.58" x2="128.47" y2="138.58"/>
  <path class="cls-2" d="M356.33,81.6c-4.81,5.3-14.3,6.1-18.97.68-3.48,6.4-10.35,10.81-17.62,11.33-7.26.51-14.69-2.9-19.04-8.74-5.98,5.99-15.1,8.35-23.35,6.69,1.03,46.11,4.15,117.96,13.53,172.99h-44.31c9.38-55.04,12.5-126.89,13.53-173-8.25,1.67-17.38-.69-23.36-6.68-4.35,5.84-11.77,9.25-19.04,8.74-7.26-.52-14.14-4.93-17.62-11.33-4.66,5.42-14.15,4.62-18.96-.68-4.81-5.29-5.24-13.57-2.46-20.15,2.79-6.59,8.28-11.68,14.22-15.66-5.48-.1-9.67-6.03-8.98-11.47.69-5.43,5.25-9.82,10.44-11.56,5.2-1.75,10.9-1.23,16.22.07-.22-9.73,7.41-19.04,17-20.73,9.58-1.68,19.94,4.46,23.05,13.68,0,0,16.97-32.08,36.23,0,3.11-9.22,13.46-15.36,23.05-13.68,9.58,1.69,17.22,11,17,20.73,5.32-1.3,11.02-1.82,16.21-.07,5.19,1.74,9.75,6.13,10.45,11.56.69,5.44-3.51,11.37-8.98,11.47,5.94,3.98,11.43,9.07,14.21,15.66,2.79,6.58,2.35,14.86-2.45,20.15Z"/>
  <path class="cls-2" d="M558.45,264.58h-36.92c-2.66,0-4.93-1.92-5.38-4.54l-20.12-116.93c-.45-2.62-2.72-4.54-5.38-4.54h-43.52c-2.66,0-4.93,1.92-5.38,4.54l-20.13,116.93c-.45,2.62-2.72,4.54-5.38,4.54h-36.92c-3.4,0-5.98-3.07-5.38-6.42l42.96-241.07c.46-2.61,2.73-4.5,5.38-4.5h93.24c2.65,0,4.91,1.9,5.38,4.5l42.95,241.07c.6,3.35-1.98,6.42-5.38,6.42Z"/>
  <g>
    <line class="cls-3" x1="476.53" y1="57.58" x2="476.53" y2="50.61"/>
    <polygon class="cls-3" points="488.91 69.13 448.83 69.13 461.21 57.58 461.21 58.34 476.53 58.34 476.53 57.58 488.91 69.13"/>
    <polyline class="cls-3" points="476.52 50.61 476.52 57.56 476.53 57.58"/>
    <polyline class="cls-3" points="461.22 50.61 461.22 57.56 461.21 57.58"/>
    <g>
      <path class="cls-3" d="M456.13,89.23s5.32,7.72,12.75,0c0,0,6.85-7.72,12.75,0"/>
      <path class="cls-3" d="M449.43,69.13l2.94,2v41.3h33.02v-41.3l2.94-2M481.63,107.34h-25.51v-36.21h25.51v36.21Z"/>
    </g>
    <path class="cls-3" d="M470.23,40.59c2.69-.61,4.69-3,4.69-5.85,0-3.32-2.71-6.01-6.06-6.01s-6.06,2.69-6.06,6.01c0,2.86,2.01,5.25,4.7,5.85l-7.48,6.73v3.29h17.69v-3.29l-7.49-6.73ZM464.53,34.74c0-2.38,1.95-4.31,4.35-4.31s4.35,1.93,4.35,4.31-1.95,4.31-4.35,4.31-4.35-1.93-4.35-4.31Z"/>
  </g>
  <g>
    <path class="cls-2" d="M713.12,193.86c.13,3.95-.71,7.85-1.97,11.61-3.8,12.37-13.23,24.65-24.86,31.85-16.3,10.76-39.78,20.75-55.91,26.1-7.31,2.43-6.16.84-.28-3.17,12.03-8.16,25.46-16.73,35.37-27.22,19.01-19.63,26.7-44.15,8.21-61.74-8.85-7.3-18.34-12.59-27.48-21.54-12.43-12.12-35.86-37.48-31-56.53,1.87-8.09,5.59-15.8,10.62-22.42,12.34-15.62,33.46-24.23,50.79-31.92,6.76-2.88,19.9-7.76,25.14-8.83,1-.09,1.54.03.3,1.15-13.71,10.09-30.85,19.53-42.1,32.55-17.14,18.83-23.69,41.51-6.47,58.74,9.09,7.86,17.45,12.17,27.03,21.27,12.49,11.88,31.31,32.08,32.6,49.97v.12Z"/>
    <path class="cls-2" d="M679.33,47.99c7.24-4.46,15.81-5.23,23.29-3.71,7.49,1.53,14.09,5.16,20.42,8.98-15.89,1.89-30.61,1.66-43.71-5.28Z"/>
    <path class="cls-2" d="M657.93,45.57c6.76-5.5,10.4-13.52,11.45-21.27,1.05-7.76-.23-15.36-1.79-22.77-7.2,14.73-11.94,29.04-9.66,44.04Z"/>
    <path class="cls-2" d="M643.91,101.41c1.25-8.09,6.66-15.14,13.32-20.07,6.66-4.93,14.53-8,22.38-10.75-9.65,13.34-20.32,24.58-35.71,30.83Z"/>
    <path class="cls-2" d="M617.25,113.03c-8.33-1.69-15.12-6.97-19.55-13.2s-6.77-13.39-8.78-20.5c12.9,9.47,23.49,19.69,28.33,33.7Z"/>
    <path class="cls-2" d="M663.5,234.64c-9.32.42-17.96-3.4-24.34-8.87-6.38-5.47-10.79-12.48-14.84-19.54,16.27,6.67,30.28,14.75,39.18,28.41Z"/>
    <path class="cls-2" d="M702.04,167.34c-2.06-8.25-.21-16.65,3.51-23.32,3.72-6.68,9.17-11.87,14.73-16.74-3,15.72-7.67,29.68-18.24,40.07Z"/>
    <path class="cls-2" d="M653.79,157.58c-7.7,3.59-16.3,3.38-23.57,1-7.26-2.38-13.4-6.74-19.24-11.27,16.01-.05,30.6,1.88,42.81,10.28Z"/>
    <path class="cls-2" d="M709.84,210.21c2.76-8.04,8.88-14.09,15.63-17.67,6.75-3.58,14.15-4.97,21.47-6.04-11.07,11.56-22.58,20.74-37.1,23.71Z"/>
  </g>
  <circle class="cls-2" cx="128.47" cy="107.26" r="4.73"/>
  <circle class="cls-2" cx="133.19" cy="138.58" r="4.73"/>
  <circle class="cls-2" cx="128.47" cy="169.89" r="4.73"/>
  <g>
    <rect class="cls-2" x="770.48" y="22.69" width="15.06" height="238.39"/>
    <rect class="cls-2" x="847.99" y="5.56" width="15.06" height="238.39" transform="translate(34.61 396.02) rotate(-26.58)"/>
    <path class="cls-2" d="M770.48,22.69s11.46-15.8,38.44-7.9"/>
    <path class="cls-3" d="M785.54,244.55c0,10.49,3.85,16.53,3.85,16.53l11.19-3.71s-15.04-34.73-6.99-85.78c8.05-51.05,1.86-88.81,1.86-88.81,0,0-6.3-33.68-2.09-42.16s2.09-19.1,2.09-19.1c-5.35-2.26-9.91,1.16-9.91,1.16,0,0,5.31,1.25,9.5-1.32"/>
    <rect class="cls-2" x="922.13" y="16.67" width="15.06" height="238.39" transform="translate(1859.32 271.73) rotate(180)"/>
    <rect class="cls-2" x="844.61" y="33.8" width="15.06" height="238.39" transform="translate(1682.68 -91.51) rotate(153.42)"/>
    <path class="cls-2" d="M937.19,255.06s-11.46,15.8-38.44,7.9"/>
    <path class="cls-3" d="M912.63,256.38c4.19-2.57,9.5-1.32,9.5-1.32,0,0-4.56,3.42-9.91,1.16,0,0-2.11-10.61,2.09-19.1,0,0,7.39-14.81-7.03-34.69,0,0-9.95-9.27-19.91-35.7,0,0-38.45-93.03-58.01-117.05-19.57-24.03-12.17-32.04-12.17-32.04l10.71,1.77s-2.66,10.45,11.42,23.62c14.07,13.17,28.59,42.01,59.43,121.65,0,0,5.54,17.51,19.22,31.92,0,0,4.16,5.13,4.16,11.81"/>
  </g>
  <g>
    <path class="cls-2" d="M1157.2,12.58h-171.29c-5.22,0-9.45,4.23-9.45,9.45v14.7c0,5.22,4.23,9.45,9.45,9.45h10.8l111.34-.95c8-.07,12.46,9.22,7.4,15.42l-136.86,167.72c-1.38,1.69-2.13,3.8-2.13,5.97v20.8c0,5.22,4.23,9.45,9.45,9.45h171.29c5.22,0,9.45-4.23,9.45-9.45v-14.7c0-5.22-4.23-9.45-9.45-9.45h-122.29c-7.98,0-12.36-9.27-7.31-15.44l136.9-166.91c1.39-1.69,2.14-3.81,2.14-5.99v-20.61c0-5.22-4.23-9.45-9.45-9.45Z"/>
    <path class="cls-2" d="M991.13,29.51c158.09,0,110.4,1.77,158.09,0,51.67-1.91-197.83,218.14-158.09,218.14,74.19,0-29.13,0,132.48,0"/>
  </g>
  <path class="cls-1" d="M1140.76,244.83l-2.28-7.01c-.13-.4.33-.74.67-.49l5.96,4.33c.15.11.36.11.51,0l5.96-4.33c.34-.25.81.09.67.49l-2.28,7.01c-.06.18,0,.38.16.49l5.96,4.33c.34.25.17.79-.26.79h-7.37c-.19,0-.36.12-.42.3l-2.28,7.01c-.13.4-.7.4-.83,0l-2.28-7.01c-.06-.18-.23-.3-.42-.3h-7.37c-.42,0-.6-.54-.26-.79l5.96-4.33c.15-.11.22-.31.16-.49Z"/>
</svg>